<svg xmlns="http://www.w3.org/2000/svg" height="24" viewBox="0 -960 960 960" width="24"><path d="m776.308-159.269-247.815-248q-29.685 25.538-68.57 39.173-38.885 13.635-77.111 13.635-94.771 0-159.926-65.27-65.155-65.27-65.155-159.5 0-94.231 65.059-159.654 65.06-65.423 159.5-65.423 94.441 0 159.864 65.343 65.423 65.342 65.423 159.678 0 40.979-14.654 79.922-14.654 38.942-38.154 66.298l248 247.336-26.461 26.462ZM382.654-391.385q79.115 0 133.557-54.295 54.443-54.295 54.443-133.75t-54.443-133.705q-54.442-54.25-133.749-54.25-79.308 0-133.558 54.296-54.25 54.295-54.25 133.75 0 79.454 54.282 133.704 54.282 54.25 133.718 54.25Z"/></svg>